# xmcd CD database file
#
# Track frame offsets:
#	150
#	7520
#	28738
#	41638
#	61905
#	75484
#	80708
#	105489
#	113782
#	115106
#	135289
#	175399
#	194858
#	216215
#
# Disc length: 3173 seconds
#
# Revision: 2
# Processed by: cddbd v1.5.1PL2 Copyright (c) Steve Scherf et al.
# Submitted via: CDex 1.70beta2
#
DISCID=b20c630e
DTITLE=Mr.Children - 深海
DYEAR=1996
DGENRE=Rock
TTITLE0=Dive
TTITLE1=シーラカンス
TTITLE2=手紙
TTITLE3=ありふれたLove Story ～男女問題はいつも面倒だ～
TTITLE4=Mirror
TTITLE5=Making Songs
TTITLE6=名もなき詩
TTITLE7=So Let's Get Truth
TTITLE8=臨時ニュース
TTITLE9=マシンガンをぶっ放せ
TTITLE10=ゆりかごのある丘から
TTITLE11=虜
TTITLE12=花 -MementoMori-
TTITLE13=深海
EXTD=YEAR: 1996
EXTT0=
EXTT1=
EXTT2=
EXTT3=
EXTT4=
EXTT5=
EXTT6=
EXTT7=
EXTT8=
EXTT9=
EXTT10=
EXTT11=
EXTT12=
EXTT13=
PLAYORDER=
